<svg width="70" height="76" viewBox="0 0 70 76" fill="none" xmlns="http://www.w3.org/2000/svg">
<path d="M54.1263 11.2761C54.824 10.6182 55.4189 10.0362 56.0291 9.47063C58.837 6.86792 62.3909 7.22237 63.9187 10.7284C65.3416 13.9938 66.2925 17.5471 66.8988 21.0687C68.1401 28.2782 68.0587 35.4889 65.6185 42.5217C62.8097 50.6171 57.4611 56.7511 50.6847 61.741C46.2514 65.0055 41.7313 68.1532 37.2078 71.2923C36.8103 71.5681 35.9204 71.6415 35.5588 71.3856C30.2818 67.6512 24.9177 64.0198 19.8451 60.0205C7.50451 50.2909 3.22354 37.3724 5.54658 22.0883C6.06079 18.7051 6.87098 15.3369 7.88946 12.0691C8.80598 9.12859 10.9346 7.61268 13.3605 7.90951C14.4432 8.042 15.5495 8.69716 16.4621 9.36516C18.7535 11.0425 20.8407 13.0126 23.1985 14.5817C25.4401 16.0735 26.837 15.785 28.7018 13.8685C29.8996 12.6375 30.955 11.2687 32.0901 9.97566C34.6621 7.04584 37.8984 7.0288 40.4871 9.94333C41.5878 11.1825 42.5822 12.5214 43.7361 13.7067C45.7972 15.8239 47.1936 16.0291 49.7162 14.4932C51.2293 13.5719 52.5973 12.4122 54.1263 11.2761ZM10.9051 40.6783C12.4661 45.306 14.7278 49.6345 18.4148 52.802C24.1066 57.6916 30.1568 62.1642 35.989 66.7617C40.8041 63.355 45.3078 60.371 49.5872 57.0941C56.2461 51.9951 60.9509 45.5247 62.6516 37.1313C64.2009 29.4857 63.2036 22.011 61.1088 14.6228C60.8525 13.7191 60.2432 12.9155 59.7656 12.0048C58.2161 13.3649 56.973 14.565 55.6151 15.617C54.2591 16.6675 52.8528 17.687 51.3547 18.5139C47.6385 20.5649 44.754 20.2813 41.5595 17.469C40.1504 16.2284 38.9943 14.6971 37.7465 13.2774C36.4478 11.8 36.1317 11.8011 34.8823 13.3063C33.8967 14.4936 32.9539 15.7285 31.8674 16.8179C28.4602 20.2342 25.1237 20.6878 20.9396 18.2828C19.5559 17.4875 18.2549 16.5263 16.9995 15.5353C15.6252 14.4504 14.3475 13.2433 12.6086 11.7231C9.07713 21.3744 8.0648 30.7538 10.9051 40.6783Z" fill="white"/>
<path d="M16.5662 43.3959C13.3901 37.3046 12.9634 30.926 13.7192 24.3857C13.9159 22.6839 14.264 20.9997 14.5948 18.9898C22.1443 25.2055 29.4019 26.3009 36.1991 18.3103C43.2137 25.6478 49.1848 25.7768 57.911 19.3749C61.414 33.1018 58.377 45.3511 46.9098 53.9214C43.4912 56.4764 39.9815 58.9095 36.4039 61.4771C29.5306 56.6821 22.1747 52.5734 17.6013 45.2093C17.2577 44.6561 16.9569 44.0763 16.5662 43.3959ZM40.2482 27.8646C39.0178 27.1978 37.7875 26.5311 36.4994 25.833C36.4994 35.4733 36.4994 45.0459 36.4994 54.6746C48.2254 47.8423 54.8948 39.8401 53.6565 27.7617C49.2895 29.4997 44.9063 29.8309 40.2482 27.8646Z" fill="white"/>
</svg>
