<svg width="70" height="63" viewBox="0 0 70 63" fill="none" xmlns="http://www.w3.org/2000/svg">
<path d="M16.1328 0.0686035C6.97266 1.05298 0.0273437 9.37915 0 19.4006C0 22.5999 0.820312 27.1663 1.87305 29.8049L2.07812 30.3245H8.55859H15.0391L15.1758 30.01C15.2441 29.8459 16.2012 26.6604 17.2949 22.9417C18.4023 19.2229 19.4004 15.9963 19.5234 15.7776C20.248 14.5334 22.0254 14.4241 22.873 15.5862C23.0234 15.7913 23.9258 18.8264 25.0469 22.887C26.0859 26.7014 26.9746 29.8733 27.0156 29.9417C27.0566 29.9963 28.7109 30.051 30.707 30.051C34.6172 30.051 34.8223 30.0784 35.3828 30.803C35.5332 30.9807 36.1895 32.7444 36.8457 34.6995C37.5156 36.6545 38.0898 38.2542 38.1309 38.2542C38.1719 38.2542 39.6621 34.1799 41.4258 29.2034C43.1895 24.2268 44.7617 19.9749 44.9121 19.7424C45.6367 18.6487 47.1543 18.553 48.084 19.551C48.2754 19.7561 49.1367 21.9299 50.2852 25.1292L52.1855 30.3928L59.9238 30.4338L67.6621 30.4612L67.9492 29.6819C68.4141 28.4514 69.166 25.6213 69.4531 24.0081C70.5469 17.9377 69.918 12.8381 67.5801 8.92798C64.873 4.41626 60.2109 1.27173 54.7832 0.287354C53.0879 -0.0134277 50.0937 0.000244141 48.4668 0.301025C43.9687 1.16235 40.5918 3.22681 37.6113 6.93188C36.4355 8.40845 35.9844 8.7229 35.0684 8.75024C34.0566 8.76392 33.4824 8.40845 32.5527 7.21899C29.4355 3.19946 25.1289 0.711182 20.2344 0.109619C19.1406 -0.0134277 17.1719 -0.0407715 16.1328 0.0686035Z" fill="#02273A"/>
<path d="M19.8516 28.7932C19.1543 31.1721 18.4707 33.2776 18.3477 33.4553C18.2109 33.6467 17.9238 33.9201 17.7188 34.0705C17.3496 34.344 17.1719 34.3576 10.6504 34.3986C6.97266 34.4123 3.96484 34.467 3.96484 34.508C3.96484 34.5354 4.25195 35.0822 4.60742 35.6975C7.99805 41.6994 13.5488 47.9065 20.5078 53.5119C23.9668 56.301 28.5742 59.4729 32.3613 61.7014C34.6445 63.0276 34.9863 63.0959 36.4082 62.426C37.7617 61.7834 40.4824 60.1291 43.1348 58.3518C51.8164 52.5139 58.666 45.883 63.2871 38.883C64.2031 37.5022 65.7617 34.8225 65.7617 34.6447C65.7617 34.6037 62.3301 34.5627 58.1465 34.5627C51.0371 34.5627 50.4766 34.5354 49.9707 34.3029C49.6699 34.1662 49.3145 33.9338 49.1914 33.7834C49.0547 33.633 48.4531 32.1428 47.8516 30.4611C47.2363 28.7795 46.7031 27.3303 46.6484 27.2346C46.5938 27.1389 45.0898 31.1994 43.2852 36.2443C41.4941 41.3029 39.9355 45.5822 39.8262 45.7736C39.5391 46.2795 39.0195 46.6076 38.418 46.6897C37.6934 46.7854 37.2695 46.6623 36.7363 46.1838C36.3125 45.8147 36.1074 45.2678 34.3027 39.9768L32.334 34.1662L28.5469 34.1252C24.9785 34.0842 24.7461 34.0705 24.3906 33.7971C24.1855 33.6467 23.8984 33.3733 23.7617 33.1819C23.625 33.0041 23.0098 30.9944 22.3809 28.7248C21.7656 26.4553 21.2188 24.5686 21.1914 24.5276C21.1504 24.5002 20.5488 26.4143 19.8516 28.7932Z" fill="#02273A"/>
</svg>
