<svg width="25" height="22" viewBox="0 0 25 22" fill="none" xmlns="http://www.w3.org/2000/svg">
<path d="M2.32422 13.0251L11.1475 21.2624C11.5137 21.6042 11.9971 21.7946 12.5 21.7946C13.0029 21.7946 13.4863 21.6042 13.8525 21.2624L22.6758 13.0251C24.1602 11.6433 25 9.70479 25 7.67842V7.39522C25 3.98213 22.5342 1.07198 19.1699 0.510454C16.9434 0.139361 14.6777 0.8669 13.0859 2.4587L12.5 3.04463L11.9141 2.4587C10.3223 0.8669 8.05664 0.139361 5.83008 0.510454C2.46582 1.07198 0 3.98213 0 7.39522V7.67842C0 9.70479 0.839844 11.6433 2.32422 13.0251Z" fill="white" fill-opacity="0.8"/>
</svg>
