<svg width="18" height="26" viewBox="0 0 18 26" fill="none" xmlns="http://www.w3.org/2000/svg">
<path d="M9.375 0.357178C6.78711 0.357178 4.6875 2.45679 4.6875 5.04468V12.8572C4.6875 15.4451 6.78711 17.5447 9.375 17.5447C11.9629 17.5447 14.0625 15.4451 14.0625 12.8572V5.04468C14.0625 2.45679 11.9629 0.357178 9.375 0.357178ZM3.125 10.9041C3.125 10.2546 2.60254 9.73218 1.95312 9.73218C1.30371 9.73218 0.78125 10.2546 0.78125 10.9041V12.8572C0.78125 17.2078 4.01367 20.8015 8.20312 21.3728V23.0134H5.85938C5.20996 23.0134 4.6875 23.5359 4.6875 24.1853C4.6875 24.8347 5.20996 25.3572 5.85938 25.3572H9.375H12.8906C13.54 25.3572 14.0625 24.8347 14.0625 24.1853C14.0625 23.5359 13.54 23.0134 12.8906 23.0134H10.5469V21.3728C14.7363 20.8015 17.9688 17.2078 17.9688 12.8572V10.9041C17.9688 10.2546 17.4463 9.73218 16.7969 9.73218C16.1475 9.73218 15.625 10.2546 15.625 10.9041V12.8572C15.625 16.3093 12.8271 19.1072 9.375 19.1072C5.92285 19.1072 3.125 16.3093 3.125 12.8572V10.9041Z" fill="white"/>
</svg>
