<svg width="22" height="26" viewBox="0 0 22 26" fill="none" xmlns="http://www.w3.org/2000/svg">
<path d="M10.9375 0.357178C10.0733 0.357178 9.37504 1.05542 9.37504 1.91968V2.85718C5.81059 3.57983 3.12504 6.73413 3.12504 10.5134V11.4314C3.12504 13.7263 2.28032 15.9431 0.756878 17.6619L0.39555 18.0671C-0.0146065 18.5261 -0.112263 19.1853 0.136761 19.7468C0.385784 20.3083 0.947307 20.6697 1.56254 20.6697H20.3125C20.9278 20.6697 21.4844 20.3083 21.7383 19.7468C21.9922 19.1853 21.8897 18.5261 21.4795 18.0671L21.1182 17.6619C19.5948 15.9431 18.75 13.7312 18.75 11.4314V10.5134C18.75 6.73413 16.0645 3.57983 12.5 2.85718V1.91968C12.5 1.05542 11.8018 0.357178 10.9375 0.357178ZM13.1495 24.4441C13.7354 23.8582 14.0625 23.0623 14.0625 22.2322H10.9375H7.81254C7.81254 23.0623 8.13969 23.8582 8.72563 24.4441C9.31156 25.03 10.1075 25.3572 10.9375 25.3572C11.7676 25.3572 12.5635 25.03 13.1495 24.4441Z" fill="white" fill-opacity="0.8"/>
</svg>
