<svg width="29" height="23" viewBox="0 0 29 23" fill="none" xmlns="http://www.w3.org/2000/svg">
<path d="M14.0625 0.919678C6.29394 0.919678 0 7.21362 0 14.9822C0 17.5603 0.698242 19.9773 1.90918 22.0525C2.18262 22.5212 2.70508 22.7947 3.24707 22.7947H24.8779C25.4199 22.7947 25.9424 22.5212 26.2158 22.0525C27.4316 19.9773 28.125 17.5603 28.125 14.9822C28.125 7.21362 21.8311 0.919678 14.0625 0.919678ZM14.0625 4.04468C14.7803 4.04468 15.3613 4.53784 15.542 5.2019C15.4883 5.31421 15.415 5.40698 15.3711 5.52905L14.9219 6.88159C14.6729 7.05249 14.3848 7.17456 14.0625 7.17456C13.1982 7.17456 12.5 6.47632 12.5 5.61206C12.5 4.7478 13.1982 4.04468 14.0625 4.04468ZM4.6875 18.1072C3.82324 18.1072 3.125 17.4089 3.125 16.5447C3.125 15.6804 3.82324 14.9822 4.6875 14.9822C5.55176 14.9822 6.25 15.6804 6.25 16.5447C6.25 17.4089 5.55176 18.1072 4.6875 18.1072ZM7.03125 10.2947C6.16699 10.2947 5.46875 9.59644 5.46875 8.73218C5.46875 7.86792 6.16699 7.16968 7.03125 7.16968C7.89551 7.16968 8.59375 7.86792 8.59375 8.73218C8.59375 9.59644 7.89551 10.2947 7.03125 10.2947ZM19.082 6.75952L16.0889 15.7439C16.7529 16.3152 17.1875 17.155 17.1875 18.1072C17.1875 18.6785 17.0215 19.2107 16.7529 19.6697H11.3721C11.1035 19.2058 10.9375 18.6785 10.9375 18.1072C10.9375 16.4519 12.2314 15.1091 13.8623 15.0017L16.8555 6.01733C17.0605 5.4021 17.7197 5.06519 18.3398 5.27515C18.9551 5.48022 19.2871 6.14429 19.082 6.75952ZM19.7998 9.55249L20.5566 7.2771C20.7275 7.21362 20.9033 7.16968 21.0986 7.16968C21.9629 7.16968 22.6611 7.86792 22.6611 8.73218C22.6611 9.59644 21.9629 10.2947 21.0986 10.2947C20.542 10.2947 20.0781 9.98706 19.7998 9.55249ZM23.4375 18.1072C22.5732 18.1072 21.875 17.4089 21.875 16.5447C21.875 15.6804 22.5732 14.9822 23.4375 14.9822C24.3018 14.9822 25 15.6804 25 16.5447C25 17.4089 24.3018 18.1072 23.4375 18.1072Z" fill="white" fill-opacity="0.8"/>
</svg>
