<svg width="63" height="63" viewBox="0 0 63 63" fill="none" xmlns="http://www.w3.org/2000/svg">
<path d="M10.9208 0.213673C7.91579 0.977709 5.91705 3.7381 6.42708 6.42454C6.95088 9.25887 9.48722 11.1936 12.6714 11.1936C17.3443 11.1936 20.308 6.8805 18.2403 3.10961C16.9308 0.706599 13.8017 -0.525716 10.9208 0.213673ZM13.2228 2.38255C13.788 2.65366 13.8982 2.98638 13.8982 4.60072C13.8982 5.88232 13.8707 6.0302 13.595 6.32596C13.402 6.5108 13.0712 6.67101 12.7679 6.7203C12.3268 6.78191 12.2028 6.73262 11.8306 6.41222L11.417 6.04253V4.51445C11.417 2.8878 11.5273 2.54275 12.1614 2.32093C12.5887 2.16073 12.7679 2.17305 13.2228 2.38255Z" fill="#02273A"/>
<path d="M53.5012 3.44214C52.4122 3.62698 51.4197 4.25546 50.9648 5.05647C50.8132 5.31525 50.5375 6.01767 50.3445 6.60919C49.6829 8.67948 48.525 10.5526 46.8571 12.2409C45.837 13.2883 45.4648 14.077 45.4648 15.2354C45.4648 17.2564 47.2155 18.9077 49.5037 19.0556L50.4272 19.1172V18.3778C50.4272 16.8621 51.1992 15.6174 52.5638 14.9766C53.3495 14.5946 55.0864 14.5946 55.8859 14.9766C57.2505 15.6297 57.8846 16.5663 57.9811 18.0574L58.05 19.0802H58.822C59.8971 19.0802 61.055 18.575 61.8959 17.737C62.6678 16.9606 63.0124 16.1227 62.9986 15.0382C62.9711 14.0277 62.5713 13.2267 61.5375 12.1793C59.8834 10.5033 58.7392 8.61786 58.0776 6.5106C57.8708 5.8698 57.5951 5.16738 57.4573 4.97021C56.6578 3.81183 55.0037 3.17103 53.5012 3.44214Z" fill="#02273A"/>
<path d="M10.1777 15.0013V16.8621H12.6589H15.1401V15.0013C15.1401 13.313 15.1126 13.1405 14.9058 13.2144C14.7817 13.2637 14.2304 13.3623 13.6652 13.4362C12.7141 13.5595 11.0875 13.4485 10.4121 13.2144C10.2053 13.1405 10.1777 13.313 10.1777 15.0013Z" fill="#02273A"/>
<path d="M17.623 15.7533V16.85L24.8323 16.887L32.0278 16.924L32.8135 17.269C33.6681 17.6387 34.3987 18.2919 34.8811 19.1052L35.1982 19.6351L35.2671 33.5602C35.3498 47.4115 35.3498 47.4854 35.6393 48.4466C36.3147 50.5539 37.8586 52.4763 39.816 53.647C46.019 57.3316 54.3585 53.9674 55.3786 47.3745C55.4751 46.7337 55.5302 41.6812 55.5302 32.1308C55.5302 16.4557 55.5716 17.306 54.7169 16.9856C53.945 16.7022 53.1731 17.1088 52.9939 17.8729C52.9525 18.0824 52.9112 24.7862 52.9112 32.7839V47.3129L52.5528 48.2618C52.1255 49.4078 51.8222 49.8761 50.9124 50.7387C49.4099 52.1805 47.5766 52.8953 45.3987 52.8953C44.6267 52.8953 43.841 52.809 43.331 52.6735C41.4701 52.1929 39.5679 50.7757 38.7132 49.2599C37.8586 47.7442 37.8862 48.385 37.8862 33.8683C37.8862 25.2175 37.831 20.3375 37.7345 19.8199C37.4175 18.0331 35.8736 16.123 34.1644 15.3589C32.5654 14.6565 32.3862 14.6442 24.6945 14.6442H17.623V15.7533Z" fill="#02273A"/>
<path d="M7.11759 20.5837C4.51233 22.3336 3.45093 23.2455 2.40332 24.6627C1.03866 26.4988 0.349435 28.298 0.101316 30.6517C0.00482455 31.576 -0.0227443 35.8398 0.018609 42.7407C0.0599623 53.2524 0.0737467 53.4126 0.36322 54.4354C0.70783 55.5938 1.50733 57.2081 2.19655 58.1077C2.91334 59.0566 4.51233 60.4614 5.61509 61.1269C6.80055 61.8539 7.71032 62.2236 9.33688 62.6673C10.3707 62.9507 10.7705 62.9877 12.5211 63C14.6852 63 15.6364 62.8521 17.3319 62.2483C20.9709 60.9544 23.7554 58.1077 24.8857 54.571C25.1201 53.8193 25.1338 53.0429 25.1338 41.57V29.3701L24.7479 28.261C23.6175 24.9954 22.115 23.2455 18.1865 20.596L15.9258 19.0803H12.6451H9.35067L7.11759 20.5837ZM9.86069 32.9562C11.7354 33.523 13.3068 35.0881 13.7479 36.8256C13.9547 37.6143 13.9271 39.1177 13.7065 39.8571C13.1138 41.8411 11.3356 43.3692 9.1439 43.7882C7.13137 44.1579 4.80181 43.209 3.56121 41.4838C2.80306 40.4486 2.55494 39.4751 2.62387 37.9101C2.66522 36.7147 2.70657 36.5545 3.18903 35.6919C3.97474 34.2501 5.50481 33.1533 7.24165 32.759C7.9033 32.6234 9.00606 32.6974 9.86069 32.9562ZM20.2266 37.3802C21.3983 37.7499 22.2805 38.6125 22.6113 39.7092C22.8318 40.4363 22.5975 41.4714 22.0875 42.1492C21.8807 42.408 20.9158 43.1597 19.9233 43.8128L18.1176 45.0205L20.0612 45.0575L22.0186 45.0945L22.3632 45.4642C22.8456 45.9694 22.8318 46.487 22.3218 46.9429L21.9221 47.3003H18.9446C16.0637 47.3003 15.9672 47.288 15.6226 47.0169C15.1401 46.6472 15.0299 45.8585 15.3331 44.9219C15.6364 43.9977 15.981 43.665 18.1727 42.1862C19.2892 41.4345 20.1025 40.806 20.1439 40.6458C20.3369 39.968 19.6063 39.3272 18.7792 39.4505C18.1038 39.549 17.8005 39.8325 17.6902 40.424C17.5524 41.1141 17.0975 41.5084 16.3945 41.5084C15.9534 41.5084 15.788 41.4345 15.4847 41.1141C15.1539 40.769 15.1126 40.6458 15.1815 40.1282C15.3469 38.9206 16.3669 37.7868 17.6627 37.3555C18.283 37.1583 19.5511 37.1583 20.2266 37.3802ZM4.23664 50.7631C4.76045 50.9233 5.07749 51.4162 5.07749 52.0694C5.09128 53.5235 6.02862 55.4089 7.35192 56.592C8.60631 57.701 10.5637 58.5144 12.0524 58.5144C13.3206 58.5144 14.0236 59.0812 13.8306 59.9562C13.6928 60.6216 13.1 60.8927 11.9697 60.7942C9.77798 60.6093 7.97222 59.9808 6.42837 58.8841C4.20908 57.2944 2.83063 55.0146 2.63765 52.5869C2.54116 51.2314 2.65143 51.0219 3.78176 50.6276C3.79554 50.6276 3.98852 50.6892 4.23664 50.7631Z" fill="#02273A"/>
<path d="M7.48975 35.0386C6.95215 35.1618 6.66268 35.3343 6.15266 35.8396C5.32559 36.6406 5.00855 37.5032 5.11883 38.6246C5.47722 41.9519 9.5712 42.7529 11.0461 39.783C11.4597 38.982 11.4321 37.5895 11.0186 36.7392C10.3293 35.359 8.96468 34.6935 7.48975 35.0386Z" fill="#02273A"/>
</svg>
