<?xml version="1.0" standalone="no"?>
<!DOCTYPE svg PUBLIC "-//W3C//DTD SVG 20010904//EN"
 "http://www.w3.org/TR/2001/REC-SVG-20010904/DTD/svg10.dtd">
<svg version="1.0" xmlns="http://www.w3.org/2000/svg"
 width="512.000000pt" height="512.000000pt" viewBox="0 0 512.000000 512.000000"
 preserveAspectRatio="xMidYMid meet">
<metadata>
Created by potrace 1.16, written by Peter Selinger 2001-2019
</metadata>
<g transform="translate(0.000000,512.000000) scale(0.100000,-0.100000)"
fill="#000000" stroke="none">
<path d="M2326 5104 c-161 -29 -343 -104 -489 -201 -95 -63 -250 -213 -320
-310 -159 -222 -240 -475 -240 -753 0 -361 134 -675 394 -924 189 -181 414
-297 663 -341 115 -20 337 -20 452 0 391 69 738 329 919 688 94 187 135 361
135 577 0 216 -41 390 -135 577 -181 359 -528 619 -919 688 -111 19 -351 19
-460 -1z m459 -384 c265 -70 486 -256 601 -505 106 -229 106 -521 0 -750 -115
-248 -335 -434 -601 -506 -114 -31 -335 -32 -450 -1 -254 68 -472 246 -586
477 -74 151 -93 230 -93 405 0 175 19 254 93 405 127 257 365 436 654 491 99
19 279 11 382 -16z"/>
<path d="M2345 2370 c-669 -69 -1273 -422 -1703 -996 -213 -284 -297 -496
-278 -710 8 -106 23 -157 71 -259 92 -192 271 -331 498 -385 70 -17 118 -20
335 -20 198 0 259 3 280 14 88 46 125 159 83 251 -43 93 -80 105 -335 105
-113 0 -229 5 -258 11 -211 44 -341 225 -294 407 21 82 54 145 144 277 98 144
177 237 304 360 173 169 338 286 543 385 667 324 1422 237 2025 -233 87 -68
257 -234 335 -327 76 -91 203 -276 239 -348 38 -76 59 -166 51 -221 -21 -148
-140 -266 -303 -300 -37 -8 -340 -11 -990 -11 -890 0 -939 -1 -977 -19 -74
-34 -105 -85 -105 -173 0 -66 34 -125 88 -156 l40 -22 983 0 c945 0 987 1
1066 20 446 107 676 530 524 961 -70 199 -334 555 -562 760 -199 179 -359 288
-584 399 -228 112 -433 177 -680 215 -123 19 -419 27 -540 15z"/>
</g>
</svg>
