<svg width="54" height="80" viewBox="0 0 54 80" fill="none" xmlns="http://www.w3.org/2000/svg">
<path d="M50.362 33.3333H48.3341V20.3919C48.3341 16.5 45.1675 13.3333 41.2754 13.3333H41.1061L40.1941 11.7439C39.3381 10.2505 38.8848 8.58399 38.8848 6.92397C38.8847 3.10671 35.4086 0 31.1353 0H17.5326C13.2593 0 9.78326 3.10671 9.78326 6.92397C9.78326 8.58399 9.32989 10.2507 8.47398 11.7439L7.562 13.3333H7.39266C3.50074 13.3333 0.333984 16.4998 0.333984 20.3919V59.6079C0.333984 63.4998 3.50058 66.6666 7.39266 66.6666H7.562L8.47398 68.2559C9.33005 69.7493 9.78326 71.4158 9.78326 73.0759C9.78326 76.8931 13.2593 79.9998 17.5326 79.9998H31.1353C35.4086 79.9998 38.8847 76.8931 38.8847 73.0759C38.8847 71.4158 39.3381 69.7491 40.194 68.2559L41.1059 66.6666H41.2753C45.1672 66.6666 48.334 63.5 48.334 59.6079V46.6665H50.3619C52.1846 46.6665 53.6672 45.1838 53.6672 43.3613V36.6386C53.6673 34.816 52.1847 33.3333 50.362 33.3333ZM10.7874 13.0707C11.8754 11.1747 12.4501 9.04928 12.4501 6.92397C12.4501 4.57595 14.7301 2.66668 17.5328 2.66668H31.1355C33.9381 2.66668 36.2182 4.57595 36.2182 6.92397C36.2182 9.04928 36.7929 11.1746 37.8809 13.0707L38.0315 13.3334H10.6368L10.7874 13.0707ZM15.0007 29.3333C14.2633 29.3333 13.6674 28.7361 13.6674 28.0001C13.6674 27.2641 14.2634 26.6668 15.0007 26.6668H24.334C25.0714 26.6668 25.6672 27.2641 25.6672 28.0001C25.6672 28.7361 25.0712 29.3333 24.334 29.3333H15.0007ZM21.6673 33.3333C21.6673 34.0693 21.0713 34.6666 20.334 34.6666H15.0007C14.2633 34.6666 13.6674 34.0693 13.6674 33.3333C13.6674 32.5973 14.2634 32 15.0007 32H20.334C21.0714 32 21.6673 32.5973 21.6673 33.3333ZM25.6674 32H33.6674C34.4048 32 35.0007 32.5973 35.0007 33.3333C35.0007 34.0693 34.4047 34.6666 33.6674 34.6666H25.6674C24.93 34.6666 24.3341 34.0693 24.3341 33.3333C24.3341 32.5973 24.93 32 25.6674 32ZM33.6673 29.3333H29.6673C28.9299 29.3333 28.3341 28.7361 28.3341 28.0001C28.3341 27.2641 28.9301 26.6668 29.6673 26.6668H33.6673C34.4047 26.6668 35.0005 27.2641 35.0005 28.0001C35.0005 28.7361 34.4047 29.3333 33.6673 29.3333ZM33.6673 24H15.0007C14.2633 24 13.6674 23.4027 13.6674 22.6667C13.6674 21.9307 14.2634 21.3335 15.0007 21.3335H33.6673C34.4047 21.3335 35.0005 21.9307 35.0005 22.6667C35.0005 23.4027 34.4047 24 33.6673 24ZM37.8807 66.9293C36.7927 68.8252 36.218 70.9507 36.218 73.076C36.218 75.424 33.938 77.3333 31.1353 77.3333H17.5326C14.73 77.3333 12.4499 75.424 12.4499 73.076C12.4499 70.9507 11.8752 68.8254 10.7872 66.9293L10.6366 66.6666H38.0313L37.8807 66.9293ZM41.6673 51.9999H39.8246L36.194 59.2626C35.946 59.756 35.4274 60.0506 34.8687 59.9933C34.3194 59.9386 33.8608 59.5506 33.714 59.0173L30.5353 47.3653L28.1433 51.3534C27.9033 51.7546 27.4699 52.0001 27.0007 52.0001H23.714L18.7766 59.4068C18.5272 59.7801 18.1086 60.0001 17.6673 60.0001C17.5967 60.0001 17.526 59.9947 17.454 59.9828C16.938 59.8988 16.5193 59.5215 16.3806 59.0174L13.1513 47.1774L9.44331 52.74C9.19534 53.1106 8.7793 53.3333 8.33403 53.3333H5.66735C4.92995 53.3333 4.33409 52.736 4.33409 52.0001C4.33409 51.2641 4.93011 50.6668 5.66735 50.6668H7.62062L12.558 43.2601C12.8472 42.8267 13.3607 42.6015 13.8806 42.6841C14.3965 42.7681 14.8153 43.1454 14.954 43.6494L18.1833 55.4895L21.8913 49.9269C22.1392 49.5563 22.5553 49.3335 23.0005 49.3335H26.2459L29.858 43.3136C30.1326 42.8575 30.6473 42.6056 31.1833 42.679C31.7113 42.7524 32.1459 43.1351 32.2873 43.6496L35.3686 54.9495L37.8073 50.0708C38.034 49.6189 38.4953 49.3334 39.0006 49.3334H41.6673C42.4047 49.3334 43.0006 49.9307 43.0006 50.6666C43.0007 51.4026 42.4047 51.9999 41.6673 51.9999Z" fill="#02273A"/>
</svg>
